<?xml version="1.0" standalone="yes"?>
<svg xmlns="http://www.w3.org/2000/svg" width="184" height="105">
<path style="fill:#399bc3; stroke:none;" d="M157 44L156.917 42.5L156.778 41.9444L156.611 40.9444L156.389 40L156.083 38L156.028 37L156 35L156 34L156 32L155.972 30L155.917 29L155.583 27L155 25L154.667 24L154.333 23L153.583 21L152.583 19L151.306 17L150.583 16L148.917 14L147 12.0833L145 10.4167L143 9L142 8.33334L140 7.02778L139 6.38889L138 5.83334L137 5.27778L136 4.83334L135 4.38889L134 4.02778L132 3.33334L130 2.69444L129 2.38889L127 1.86111L126 1.63889L125 1.38889L123 1.08334L121 0.972221L120 0.916664L118 0.611115L117 0.388885L115 0.0833359L114 0.0277786L112 0.0833359L110 0.388885L108 0.777779L107 0.916664L105 1.08334L104 1.22222L103 1.38889L101 1.86111L100 2.13889L98 2.69444L96 3.38889L95 3.83334L94 4.27778L92 5.38889L90 6.69444L89 7.41666L88 8.22222L86 10.0278L84.0833 12L82.3889 13.9722L81.6111 14.9167L79.9167 16.5L78 17.5L76 17.8333L74 17.6111L73 17.3611L71 16.8611L70 16.6389L69 16.3889L67 16.0833L66 16.0278L65 16L63 16L61 16L59 16.0833L57 16.4167L56 16.6944L54 17.3889L53 17.8333L52 18.25L51 18.7778L49.0278 19.8611L48.0833 20.4722L46.3889 22.0833L45.6389 23.0278L44.8611 24L43.4444 26L42.2778 28L41.8333 29L41.0278 31L40.3889 33L40.1389 34L39.5556 36L39.1389 37L38.7222 37.9722L37.5278 39.75L36.75 40.5L34.9722 41.5L33 41.9167L32 41.9722L30 42L28 42L27 42.0278L26 42.0833L24 42.3889L23 42.6389L21 43.1389L20 43.3889L18 44.0278L17 44.3889L15 45.2778L13 46.3889L11.0278 47.6944L10.0833 48.4167L8.38889 50.0833L7.63889 51.0278L6.86111 52L5.44444 54L4.25 56L3.77778 57L2.77778 59L2.25 60L1.44444 62L0.861111 64L0.638889 65L0.388889 66L0.0833333 68L0.0277778 69L0 71L0.0277778 73L0.0833333 74L0.388889 76L0.638889 77L1.13889 79L1.38889 80L2.02778 82L2.38889 83L3.27778 85L4.38889 87L5.02778 88L6.41667 90L8.08333 91.9722L9.02778 92.9167L10 93.7778L11 94.5833L13 95.9722L15 97.1667L16 97.7222L17 98.1667L18 98.6111L19 98.9722L21 99.6667L23 100.306L24 100.583L26 100.917L28 101L30 101L32 101L33 100.972L34 100.917L36 100.611L37 100.361L38 100.139L40 99.6111L42 99L44 98.4167L46 98.0833L47 98.0556L48 98.0833L50 98.3889L52 98.8611L53 99.1389L55 99.6111L57 99.9444L59 100.222L61 100.611L63 100.917L64 100.972L66 100.917L67 100.778L68 100.611L70 100.139L71 99.8611L72 99.6389L73 99.3889L75 99.0833L77 99L78 99.0278L80 99.2222L81 99.4167L82 99.6944L84 100.389L85 100.806L87 101.611L88 101.972L90 102.667L91 103L93 103.583L95 103.944L96 104.056L98 104.389L99 104.611L101 104.917L102 104.972L104 105L106 105L108 105L109 105L111 104.972L112 104.917L114 104.611L115 104.389L116 104.194L118 103.806L119 103.611L120 103.361L121 103.139L122 102.861L123 102.611L124 102.306L126 101.611L127 101.194L128 100.806L129 100.389L131 99.6944L132 99.4167L134 99.1111L136 99.2222L137 99.4167L139 100L141 100.611L143 101.139L144 101.361L145 101.611L147 101.917L149 102L151 102L153 102L154 101.972L155 101.917L157 101.611L158 101.389L160 101L162 100.528L164 99.8056L166 99L168 98.1667L169 97.7222L171 96.5556L172 95.8333L173 95.1389L174.917 93.6111L176.611 91.9167L177.361 90.9722L178.833 89L179.556 88L180.722 86L181.167 85L181.611 84L181.972 83L182.667 81L183 80L183.583 78L183.917 76L183.972 75L184 73L184 72L183.917 70L183.611 68L183.389 67L183 65L182.778 64L182.528 63L181.75 61L181.222 60L180.75 59L179.528 57L177.917 55L176 53.0833L174 51.4167L172 50.0278L170 48.8333L169 48.2778L167 47.4444L166 47.1667L165 46.8611L163 46.2778L162 45.9167L160.056 45.0278L159.056 44.6111L158.5 44.3333L157 44z"/>
</svg>
